<?xml version="1.0" encoding="UTF-8" standalone="no"?><svg width="180" height="134" viewBox="0 0 180 134" fill="none" xmlns="http://www.w3.org/2000/svg">
<path d="M87.1836 96.9796C71.1428 69.7959 30.8571 52.2857 -8.39233e-05 56.3265C17.755 83.0204 53.5101 100.653 87.1836 96.9796Z" fill="#00A8EC"/>
<path d="M92.8164 96.8234C108.857 69.6397 149.143 52.1295 180 56.1703C162.245 82.8642 126.49 100.497 92.8164 96.8234Z" fill="#00A8EC"/>
<path d="M47.1429 40.4082C49.9803 51.2605 52.472 57.0733 58.0409 67.1021C48.7166 62.1206 43.0289 59.8978 31.7144 56.3266C24.8162 45.5204 22.3711 39.2471 19.7144 28.5306C31.3988 31.4996 37.4924 33.9484 47.1429 40.4082Z" fill="#00A8EC"/>
<path d="M132.612 40.5306C129.775 51.3829 127.283 57.1957 121.714 67.2245C131.039 62.243 136.726 60.0203 148.041 56.449C154.939 45.6429 157.384 39.3695 160.041 28.6531C148.357 31.622 142.263 34.0709 132.612 40.5306Z" fill="#00A8EC"/>
<path d="M77.265 38.0816C83.265 47.8775 88.2854 64.2857 89.7548 75.551C90.8568 64.6531 96.4862 48.4805 102.49 38.0816C101.02 25.2245 96.7654 8.66483 89.6851 0C83.0606 9.81051 77.9895 25.7515 77.265 38.0816Z" fill="#00A8EC"/>
<path d="M117.551 69.551C105.807 77.4304 100.113 82.779 91.7142 94.1633C88.0407 64.6531 105.87 25.8609 132.612 8.93878C134.571 33.3061 130.286 47.2653 117.551 69.551Z" fill="#00A8EC"/>
<path d="M62.0448 69.3061C73.7885 77.1855 79.4829 82.5341 87.8815 93.9183C91.555 64.4081 73.7256 25.6159 46.9836 8.69385C45.0244 33.0612 49.3101 47.0204 62.0448 69.3061Z" fill="#00A8EC"/>
<path d="M58.9335 121.719C59.3388 121.783 59.7068 121.948 60.0375 122.215C60.3788 122.481 60.6455 122.812 60.8375 123.207C61.0402 123.601 61.1415 124.023 61.1415 124.471C61.1415 125.036 60.9975 125.548 60.7095 126.007C60.4215 126.455 60.0002 126.812 59.4455 127.079C58.9015 127.335 58.2562 127.463 57.5095 127.463H53.3495V116.311H57.3495C58.1068 116.311 58.7522 116.439 59.2855 116.695C59.8188 116.94 60.2188 117.276 60.4855 117.703C60.7522 118.129 60.8855 118.609 60.8855 119.143C60.8855 119.804 60.7042 120.353 60.3415 120.791C59.9895 121.217 59.5202 121.527 58.9335 121.719ZM54.8055 121.127H57.2535C57.9362 121.127 58.4642 120.967 58.8375 120.647C59.2108 120.327 59.3975 119.884 59.3975 119.319C59.3975 118.753 59.2108 118.311 58.8375 117.991C58.4642 117.671 57.9255 117.511 57.2215 117.511H54.8055V121.127ZM57.3815 126.263C58.1068 126.263 58.6722 126.092 59.0775 125.751C59.4828 125.409 59.6855 124.935 59.6855 124.327C59.6855 123.708 59.4722 123.223 59.0455 122.871C58.6188 122.508 58.0482 122.327 57.3335 122.327H54.8055V126.263H57.3815ZM64.698 115.623V127.463H63.242V115.623H64.698ZM68.0115 117.271C67.7342 117.271 67.4995 117.175 67.3075 116.983C67.1155 116.791 67.0195 116.556 67.0195 116.279C67.0195 116.001 67.1155 115.767 67.3075 115.575C67.4995 115.383 67.7342 115.287 68.0115 115.287C68.2782 115.287 68.5022 115.383 68.6835 115.575C68.8755 115.767 68.9715 116.001 68.9715 116.279C68.9715 116.556 68.8755 116.791 68.6835 116.983C68.5022 117.175 68.2782 117.271 68.0115 117.271ZM68.7155 118.695V127.463H67.2595V118.695H68.7155ZM74.381 127.607C73.709 127.607 73.1063 127.495 72.573 127.271C72.0397 127.036 71.6183 126.716 71.309 126.311C70.9997 125.895 70.829 125.42 70.797 124.887H72.301C72.3437 125.324 72.5463 125.681 72.909 125.959C73.2823 126.236 73.7677 126.375 74.365 126.375C74.9197 126.375 75.357 126.252 75.677 126.007C75.997 125.761 76.157 125.452 76.157 125.079C76.157 124.695 75.9863 124.412 75.645 124.231C75.3037 124.039 74.7757 123.852 74.061 123.671C73.4103 123.5 72.877 123.329 72.461 123.159C72.0557 122.977 71.7037 122.716 71.405 122.375C71.117 122.023 70.973 121.564 70.973 120.999C70.973 120.551 71.1063 120.14 71.373 119.767C71.6397 119.393 72.0183 119.1 72.509 118.887C72.9997 118.663 73.5597 118.551 74.189 118.551C75.1597 118.551 75.9437 118.796 76.541 119.287C77.1383 119.777 77.4583 120.449 77.501 121.303H76.045C76.013 120.844 75.8263 120.476 75.485 120.199C75.1543 119.921 74.7063 119.783 74.141 119.783C73.6183 119.783 73.2023 119.895 72.893 120.119C72.5837 120.343 72.429 120.636 72.429 120.999C72.429 121.287 72.5197 121.527 72.701 121.719C72.893 121.9 73.1277 122.049 73.405 122.167C73.693 122.273 74.0877 122.396 74.589 122.535C75.2183 122.705 75.7303 122.876 76.125 123.047C76.5197 123.207 76.8557 123.452 77.133 123.783C77.421 124.113 77.5703 124.545 77.581 125.079C77.581 125.559 77.4477 125.991 77.181 126.375C76.9143 126.759 76.5357 127.063 76.045 127.287C75.565 127.5 75.0103 127.607 74.381 127.607ZM82.8204 127.607C82.1484 127.607 81.5457 127.495 81.0124 127.271C80.479 127.036 80.0577 126.716 79.7484 126.311C79.439 125.895 79.2684 125.42 79.2364 124.887H80.7404C80.783 125.324 80.9857 125.681 81.3484 125.959C81.7217 126.236 82.207 126.375 82.8044 126.375C83.359 126.375 83.7964 126.252 84.1164 126.007C84.4364 125.761 84.5964 125.452 84.5964 125.079C84.5964 124.695 84.4257 124.412 84.0844 124.231C83.743 124.039 83.215 123.852 82.5004 123.671C81.8497 123.5 81.3164 123.329 80.9004 123.159C80.495 122.977 80.143 122.716 79.8444 122.375C79.5564 122.023 79.4124 121.564 79.4124 120.999C79.4124 120.551 79.5457 120.14 79.8124 119.767C80.079 119.393 80.4577 119.1 80.9484 118.887C81.439 118.663 81.999 118.551 82.6284 118.551C83.599 118.551 84.383 118.796 84.9804 119.287C85.5777 119.777 85.8977 120.449 85.9404 121.303H84.4844C84.4524 120.844 84.2657 120.476 83.9244 120.199C83.5937 119.921 83.1457 119.783 82.5804 119.783C82.0577 119.783 81.6417 119.895 81.3324 120.119C81.023 120.343 80.8684 120.636 80.8684 120.999C80.8684 121.287 80.959 121.527 81.1404 121.719C81.3324 121.9 81.567 122.049 81.8444 122.167C82.1324 122.273 82.527 122.396 83.0284 122.535C83.6577 122.705 84.1697 122.876 84.5644 123.047C84.959 123.207 85.295 123.452 85.5724 123.783C85.8604 124.113 86.0097 124.545 86.0204 125.079C86.0204 125.559 85.887 125.991 85.6204 126.375C85.3537 126.759 84.975 127.063 84.4844 127.287C84.0044 127.5 83.4497 127.607 82.8204 127.607ZM98.3734 127.463L95.7174 122.903H93.9574V127.463H92.5014V116.311H96.1014C96.944 116.311 97.6534 116.455 98.2294 116.743C98.816 117.031 99.2534 117.42 99.5414 117.911C99.8294 118.401 99.9734 118.961 99.9734 119.591C99.9734 120.359 99.7494 121.036 99.3014 121.623C98.864 122.209 98.2027 122.599 97.3174 122.791L100.117 127.463H98.3734ZM93.9574 121.735H96.1014C96.8907 121.735 97.4827 121.543 97.8774 121.159C98.272 120.764 98.4694 120.241 98.4694 119.591C98.4694 118.929 98.272 118.417 97.8774 118.055C97.4934 117.692 96.9014 117.511 96.1014 117.511H93.9574V121.735ZM106.14 127.607C105.318 127.607 104.572 127.42 103.9 127.047C103.238 126.673 102.716 126.145 102.332 125.463C101.958 124.769 101.772 123.969 101.772 123.063C101.772 122.167 101.964 121.377 102.348 120.695C102.742 120.001 103.276 119.473 103.948 119.111C104.62 118.737 105.372 118.551 106.204 118.551C107.036 118.551 107.788 118.737 108.46 119.111C109.132 119.473 109.66 119.996 110.044 120.679C110.438 121.361 110.636 122.156 110.636 123.063C110.636 123.969 110.433 124.769 110.028 125.463C109.633 126.145 109.094 126.673 108.412 127.047C107.729 127.42 106.972 127.607 106.14 127.607ZM106.14 126.327C106.662 126.327 107.153 126.204 107.612 125.959C108.07 125.713 108.438 125.345 108.716 124.855C109.004 124.364 109.148 123.767 109.148 123.063C109.148 122.359 109.009 121.761 108.732 121.271C108.454 120.78 108.092 120.417 107.644 120.183C107.196 119.937 106.71 119.815 106.188 119.815C105.654 119.815 105.164 119.937 104.716 120.183C104.278 120.417 103.926 120.78 103.66 121.271C103.393 121.761 103.26 122.359 103.26 123.063C103.26 123.777 103.388 124.38 103.644 124.871C103.91 125.361 104.262 125.729 104.7 125.975C105.137 126.209 105.617 126.327 106.14 126.327ZM123.174 118.535C123.857 118.535 124.465 118.679 124.998 118.967C125.531 119.244 125.953 119.665 126.262 120.231C126.571 120.796 126.726 121.484 126.726 122.295V127.463H125.286V122.503C125.286 121.628 125.067 120.961 124.63 120.503C124.203 120.033 123.622 119.799 122.886 119.799C122.129 119.799 121.526 120.044 121.078 120.535C120.63 121.015 120.406 121.713 120.406 122.631V127.463H118.966V122.503C118.966 121.628 118.747 120.961 118.31 120.503C117.883 120.033 117.302 119.799 116.566 119.799C115.809 119.799 115.206 120.044 114.758 120.535C114.31 121.015 114.086 121.713 114.086 122.631V127.463H112.63V118.695H114.086V119.959C114.374 119.5 114.758 119.148 115.238 118.903C115.729 118.657 116.267 118.535 116.854 118.535C117.59 118.535 118.241 118.7 118.806 119.031C119.371 119.361 119.793 119.847 120.07 120.487C120.315 119.868 120.721 119.388 121.286 119.047C121.851 118.705 122.481 118.535 123.174 118.535Z" fill="white"/>
</svg>
