<?xml version="1.0" encoding="UTF-8" standalone="no"?><svg width="735" height="398" viewBox="0 0 735 398" fill="none" xmlns="http://www.w3.org/2000/svg">
<path d="M356 396C290.5 285 126 213.5 0 230C72.5 339 218.5 411 356 396Z" fill="#00A8EC"/>
<path d="M379 395.362C444.5 284.362 609 212.862 735 229.362C662.5 338.362 516.5 410.362 379 395.362Z" fill="#00A8EC"/>
<path d="M192.5 165C204.086 209.313 214.26 233.049 237 274C198.926 253.659 175.701 244.583 129.5 230C101.332 185.875 91.3483 160.259 80.5 116.5C128.212 128.623 153.094 138.623 192.5 165Z" fill="#00A8EC"/>
<path d="M541.5 165.5C529.914 209.813 519.74 233.549 497 274.5C535.074 254.159 558.299 245.083 604.5 230.5C632.668 186.375 642.652 160.759 653.5 117C605.788 129.123 580.906 139.123 541.5 165.5Z" fill="#00A8EC"/>
<path d="M315.5 155.5C340 195.5 360.5 262.5 366.5 308.5C371 264 393.987 197.962 418.5 155.5C412.5 103 395.127 35.3814 366.215 0C339.165 40.0596 318.459 105.152 315.5 155.5Z" fill="#00A8EC"/>
<path d="M480 284C432.047 316.174 408.794 338.014 374.5 384.5C359.5 264 432.304 105.599 541.5 36.5C549.5 136 532 193 480 284Z" fill="#00A8EC"/>
<path d="M253.349 283C301.302 315.174 324.555 337.014 358.849 383.5C373.849 263 301.045 104.599 191.849 35.5C183.849 135 201.349 192 253.349 283Z" fill="#00A8EC"/>
</svg>
